# xmcd CD database file
#
# Track frame offsets:
#	150
#	21687
#	61365
#	94137
#	129765
#	146957
#	175915
#
# Disc length: 2927 seconds
#
# Revision: 0
# Processed by: cddbd v1.5.1PL0 Copyright (c) Steve Scherf et al.
# Submitted via: CDex 1.51
#
DISCID=640b6d07
DTITLE=Inner Orchestra - Live 2000
DYEAR=2000
DGENRE=Jazz
TTITLE0=Damn Right I Am Somebody
TTITLE1=Freedom Jazz Dance
TTITLE2=Red Clay
TTITLE3=Epistrophy
TTITLE4=This Little Light of Mine
TTITLE5=No Shame Blues
TTITLE6=Same Beat
EXTD=YEAR: 2000
EXTT0=
EXTT1=
EXTT2=
EXTT3=
EXTT4=
EXTT5=
EXTT6=
PLAYORDER=
